<svg width="200" height="121" viewBox="0 0 200 121" fill="none" xmlns="http://www.w3.org/2000/svg">
<path d="M0 33.0632H31.6693V86.6012H44.1862V101.919H0V86.6012H12.5169V48.3814H0V33.0632ZM20.5096 0C23.7268 0 26.3408 1.01111 28.3516 3.03332C30.3623 5.05553 31.3677 7.68441 31.3677 10.9199C31.3677 14.1555 30.3623 16.7844 28.3516 18.8066C26.3408 20.7277 23.7268 21.6882 20.5096 21.6882C17.2924 21.6882 14.6785 20.7277 12.6677 18.8066C10.7575 16.7844 9.8024 14.1555 9.8024 10.9199C9.8024 7.68441 10.7575 5.05553 12.6677 3.03332C14.6785 1.01111 17.2924 0 20.5096 0Z" fill="url(#paint0_linear_20_7)"/>
<path d="M51.7795 8.64495L83.5996 8.64496V60.5147H93.5528L100.641 48.3814H93.1004V33.0632H131.104V48.3814H120.095L106.824 67.7946L120.095 86.6012H132.461V101.919H110.896L94.3069 75.6813H83.5996V86.6012H87.973V101.919H51.7795V86.6012H64.4473V19.2616H51.7795V8.64495Z" fill="url(#paint1_linear_20_7)"/>
<path d="M156.644 100.554C151.316 97.6223 147.244 93.3756 144.429 87.8145C141.714 82.1523 140.357 75.4285 140.357 67.643C140.357 59.7564 141.714 53.0325 144.429 47.4714C147.244 41.8092 151.316 37.512 156.644 34.5798C159.814 32.8087 163.361 31.5547 167.285 30.8177V47.8549C165.804 48.7302 164.519 49.8662 163.43 51.2631C160.515 55.0042 159.057 60.4641 159.057 67.643C159.057 74.8218 160.515 80.2818 163.43 84.0229C164.519 85.4197 165.804 86.5558 167.285 87.4311V104.191C163.361 103.479 159.814 102.267 156.644 100.554Z" fill="url(#paint2_linear_20_7)"/>
<path d="M178.23 121H200V10.9199H178.23V121Z" fill="#AB73E7"/>
<defs>
<linearGradient id="paint0_linear_20_7" x1="167.69" y1="60.3337" x2="0.262876" y2="60.3337" gradientUnits="userSpaceOnUse">
<stop stop-color="#563A74"/>
<stop offset="1" stop-color="#AB73E7"/>
</linearGradient>
<linearGradient id="paint1_linear_20_7" x1="167.69" y1="60.3337" x2="0.262876" y2="60.3337" gradientUnits="userSpaceOnUse">
<stop stop-color="#563A74"/>
<stop offset="1" stop-color="#AB73E7"/>
</linearGradient>
<linearGradient id="paint2_linear_20_7" x1="167.69" y1="60.3337" x2="0.262876" y2="60.3337" gradientUnits="userSpaceOnUse">
<stop stop-color="#563A74"/>
<stop offset="1" stop-color="#AB73E7"/>
</linearGradient>
</defs>
</svg>
